<svg xmlns="http://www.w3.org/2000/svg" width="84.552" height="84.552" viewBox="0 0 84.552 84.552">
  <g id="Logo_Copy_5-3" data-name="Logo Copy 5-3" transform="translate(-353.344 41.241) rotate(-45)">
    <path id="Fill_409-20" data-name="Fill 409-20" d="M255.07,304.447a7.9,7.9,0,0,1-2.22-4.712L251.58,289.1l-.005-.038c-.774-6.493-1.575-13.207-2.369-19.818a6.134,6.134,0,0,1,1.314-4.957,2.929,2.929,0,0,1,1.328-.939,2.678,2.678,0,0,1,1.607.014,2.788,2.788,0,0,1,1.182.681,2.924,2.924,0,0,1,.787,1.776c.273,2.318.551,4.673.826,6.951h0l3.08,25.846c.091.764.218,1.026.4,1.2a1.923,1.923,0,0,0,1.152.383c8.751,1.042,18.2,2.162,28.87,3.431.141.017.284.028.451.04l.3.023-.168-1.416-.61-5.175-.282-.042c-.186-.029-.361-.055-.54-.077l-9.241-1.1-.238-.029-7.769-.922a7.686,7.686,0,0,1-7.038-7.026c-.786-6.551-1.555-13.054-2.471-20.8a3.216,3.216,0,0,1,.758-2.754,3.167,3.167,0,0,1,2.711-.751c6.336.75,13.712,1.62,21.023,2.5a7.666,7.666,0,0,1,6.812,6.837c.461,3.816.913,7.668,1.358,11.4l.011.091.691,5.826c.024.2.053.413.09.631l.04.294,3.559.432,3.022.36-.02-.292c-.007-.187-.021-.34-.041-.5-1.026-8.66-2.118-17.833-3.435-28.87a1.828,1.828,0,0,0-.369-1.1,1.853,1.853,0,0,0-1.115-.373l-5.35-.644c-8.959-1.065-18.227-2.171-27.368-3.259a3.08,3.08,0,0,1-1.921-.829,2.877,2.877,0,0,1-.81-2.3,2.669,2.669,0,0,1,.8-1.6,5.507,5.507,0,0,1,2.318-1.376,6.722,6.722,0,0,1,2.7-.186c3.519.416,7.067.842,10.5,1.254l.135.016,4.244.509c1.327.159,2.676.323,3.982.481h0c3.227.392,6.564.8,9.853,1.164a11.816,11.816,0,0,1,6.168,1.911l1.055,1.055a11.716,11.716,0,0,1,1.913,6.089c.71,6.135,1.451,12.365,2.174,18.389l.007.053c.4,3.369.817,6.853,1.221,10.279a6.393,6.393,0,0,1-.765,4.031,5.257,5.257,0,0,1-3.043,2.383,8.081,8.081,0,0,1-2.932.262c-1.318-.091-2.6-.261-3.972-.432-.562-.072-1.144-.147-1.725-.216l.19,1.6.018.15h0c.159,1.356.31,2.636.472,3.938a5.884,5.884,0,0,1-.971,4.331,5.71,5.71,0,0,1-2.544,2.058,6.663,6.663,0,0,1-3.26.343l-2.647-.31-.284-.033-14.764-1.76-3.546-.418-.033-.005c-3.047-.362-6.2-.736-9.3-1.11A7.847,7.847,0,0,1,255.07,304.447ZM286.6,272.938h0a1.745,1.745,0,0,0-1.086-.373c-4.76-.568-9.843-1.172-15.541-1.849-.16-.02-.319-.03-.493-.047l-.28-.021c0,.065,0,.122,0,.18a2.5,2.5,0,0,0,.012.3l.084.7,0,.012c.6,5.029,1.209,10.231,1.823,15.345a1.4,1.4,0,0,0,.33.87,1.58,1.58,0,0,0,.98.362c2.664.323,5.369.641,7.98.954l3.339.4,5.122.607-.023-.306c-.013-.178-.023-.319-.041-.464-.674-5.681-1.281-10.789-1.858-15.617a1.682,1.682,0,0,0-.366-1.052Z"/>
  </g>
</svg>
